<svg xmlns="http://www.w3.org/2000/svg" xmlns:xlink="http://www.w3.org/1999/xlink" viewBox="0 0 217 124">
  <defs>
    <style>
      .cls-1 {
        clip-path: url(#clip-Web_1920_1);
      }

      .cls-2 {
        fill: #fff;
      }
    </style>
    <clipPath id="clip-Web_1920_1">
      <rect width="217" height="124"/>
    </clipPath>
  </defs>
  <g id="Web_1920_1" data-name="Web 1920 – 1" class="cls-1">
    <path id="Path_370" data-name="Path 370" class="cls-2" d="M93.208,66.347a1.733,1.733,0,0,1,.822-.959,1.4,1.4,0,0,1,.959-.171.83.83,0,0,1,.582.582,1.735,1.735,0,0,1-.24,1.3,26.04,26.04,0,0,1-3.7,5.618,21.345,21.345,0,0,1-4.248,3.768,16.94,16.94,0,0,1-4.522,2.124,16.213,16.213,0,0,1-4.59.685,16.511,16.511,0,0,1-9.249-2.74,29.559,29.559,0,0,1-7.57-7.365,54.614,54.614,0,0,1-6.029-10.756A122.726,122.726,0,0,1,50.732,45.52q-2.055-6.782-3.562-13.8T44.635,18.253q-1.85-.411-4.008-.788t-4.419-.719q-1.85,6.166-4.35,12.469A62.9,62.9,0,0,1,26,40.622a33.828,33.828,0,0,1-7.536,8.324,14.9,14.9,0,0,1-9.317,3.22A10.962,10.962,0,0,1,3.29,50.587a14.845,14.845,0,0,1-4.385-4.152A18.894,18.894,0,0,1-3.835,40.5a25.764,25.764,0,0,1-.925-6.863,16.459,16.459,0,0,1,1.987-7.892,19.162,19.162,0,0,1,5.686-6.417,29.179,29.179,0,0,1,9.009-4.289,42.188,42.188,0,0,1,12.023-1.578q1.918,0,3.939.171t4.076.377q1.987-6.7,3.6-13.129t2.912-11.453q1.3-5.026,2.261-8.1t1.644-3.077a11.566,11.566,0,0,1,4.83.822,6.834,6.834,0,0,1,2.6,1.953,5.349,5.349,0,0,1,1.062,2.329,11.867,11.867,0,0,1,.206,1.884q0,.411.137,3.117t.514,7.091Q52.1-.176,52.753,5.511T54.363,17.5q.959,6.3,2.329,12.914t3.22,12.88a111.075,111.075,0,0,0,4.179,11.784,53.206,53.206,0,0,0,5.207,9.66A25.01,25.01,0,0,0,75.7,71.279a13.538,13.538,0,0,0,7.776,2.4,7.3,7.3,0,0,0,3.6-.891,12.494,12.494,0,0,0,2.809-2.09,16.061,16.061,0,0,0,2.021-2.432Q92.728,67.032,93.208,66.347ZM9.284,49.562A10.087,10.087,0,0,0,16.1,46.719a30.842,30.842,0,0,0,5.926-7.536,72.24,72.24,0,0,0,5.035-10.722q2.3-6.029,4.282-12.4-1.987-.274-3.768-.445t-3.357-.171a41.108,41.108,0,0,0-9.249.925A28.884,28.884,0,0,0,8.12,18.8a18.9,18.9,0,0,0-4.761,3.425A19.108,19.108,0,0,0,.344,26.132a14.5,14.5,0,0,0-1.576,3.939,15.778,15.778,0,0,0-.445,3.46,31.028,31.028,0,0,0,.445,4.83A19.158,19.158,0,0,0,.412,43.636a12.009,12.009,0,0,0,3.323,4.213A8.567,8.567,0,0,0,9.284,49.562Zm27.4-34.8q2.124.343,4.076.754t3.528.754q-.822-5.138-1.3-9.489T42.169-.861q-.343-3.768-.48-6.919Q41.278-4.7,40.524-1.066q-.617,3.083-1.541,7.193T36.688,14.759Zm79.47,4.453a1.656,1.656,0,0,1,.651-.822.846.846,0,0,1,.685-.1.734.734,0,0,1,.445.514,1.225,1.225,0,0,1-.068.891,15.642,15.642,0,0,1-1.952,3.631,35.957,35.957,0,0,1-2.843,3.494,42.082,42.082,0,0,1-3.391,3.288q-1.815,1.576-3.6,2.877,0,.343.034.719t.034.788a13.21,13.21,0,0,1-1.3,5.926,16.37,16.37,0,0,1-3.186,4.487A14.084,14.084,0,0,1,97.7,47.712a9.117,9.117,0,0,1-3.734.959,4.314,4.314,0,0,1-2.775-.959,2.89,2.89,0,0,1-1.2-2.329,4.911,4.911,0,0,1,.685-2.535,9.542,9.542,0,0,1,1.918-2.261,31.721,31.721,0,0,1,2.843-2.227q1.61-1.13,3.46-2.364.137-.959.206-1.85t.069-1.85a21.645,21.645,0,0,0-.516-4.761,15.066,15.066,0,0,0-1.513-4.076,8.983,8.983,0,0,0-2.407-2.843,5.177,5.177,0,0,0-3.2-1.062,5.332,5.332,0,0,0-3.06.959,10.29,10.29,0,0,0-2.544,2.535,18.236,18.236,0,0,0-1.995,3.631,33.027,33.027,0,0,0-1.445,4.248,38.042,38.042,0,0,0-.894,4.316,27.247,27.247,0,0,0-.309,3.905q0,2.535.1,4.111T81.561,46a4.4,4.4,0,0,1,.343,1.165,1.852,1.852,0,0,1-.888,1.576,3.861,3.861,0,0,1-2.253.617q-1.365,0-3.822-2.5a28.018,28.018,0,0,1-4.913-7.879,68.289,68.289,0,0,1-4.265-13.8A98.063,98.063,0,0,1,63.955,4.894,82.6,82.6,0,0,1,65.188-9.8,70.956,70.956,0,0,1,68.51-22.167,53.958,53.958,0,0,1,73.306-32a42.677,42.677,0,0,1,5.618-7.228,23.286,23.286,0,0,1,5.858-4.453,12.238,12.238,0,0,1,5.549-1.507,7.506,7.506,0,0,1,4.111,1.13A9.518,9.518,0,0,1,97.455-40.9a15.656,15.656,0,0,1,1.85,4.864,29.975,29.975,0,0,1,.617,6.337,31.031,31.031,0,0,1-2.261,11.886A48.9,48.9,0,0,1,91.838-7.438a75.32,75.32,0,0,1-7.947,9.18q-4.385,4.316-8.564,8.29.206,6.166.651,11.03t1.028,8.6q.582,3.734,1.267,6.44t1.3,4.624q0-1.439.137-3.734a42.663,42.663,0,0,1,.582-4.83,36.848,36.848,0,0,1,1.3-5.138,17.724,17.724,0,0,1,2.3-4.659,12.047,12.047,0,0,1,3.528-3.357,9.336,9.336,0,0,1,5.035-1.3,13.149,13.149,0,0,1,4.761.856,12.17,12.17,0,0,1,4.008,2.535,14.585,14.585,0,0,1,3.014,4.145,17.555,17.555,0,0,1,1.644,5.618,49.175,49.175,0,0,0,6.1-5.412A20.475,20.475,0,0,0,116.158,19.212ZM75.19,6.744q3.974-3.836,7.947-7.913a72.408,72.408,0,0,0,7.125-8.5,44.508,44.508,0,0,0,5.1-9.283,27.327,27.327,0,0,0,1.953-10.276,17.6,17.6,0,0,0-.274-3.014,12.1,12.1,0,0,0-.856-2.877,6.285,6.285,0,0,0-1.541-2.158,3.374,3.374,0,0,0-2.329-.856A6.5,6.5,0,0,0,88.1-36.348a20.946,20.946,0,0,0-4.008,4.83A44.709,44.709,0,0,0,80.568-24.5a75.722,75.722,0,0,0-2.809,8.324,76.938,76.938,0,0,0-1.884,8.838,56.189,56.189,0,0,0-.685,8.461ZM92.317,46.616q1.781,0,3.494-2.3a17.156,17.156,0,0,0,2.672-5.995A59.472,59.472,0,0,0,93.276,42.2q-2.055,1.747-2.055,3.186a1.382,1.382,0,0,0,.274.891A.99.99,0,0,0,92.317,46.616Zm53.158-27.4a1.276,1.276,0,0,1,.651-.685.93.93,0,0,1,.651-.034.727.727,0,0,1,.411.411.823.823,0,0,1-.068.719q-.48,1.028-1.37,2.74a14.23,14.23,0,0,1-2.5,3.357,14.989,14.989,0,0,1-3.974,2.843,12.534,12.534,0,0,1-5.723,1.2,25.635,25.635,0,0,1-1.82,4.111,17.03,17.03,0,0,1-2.4,3.357,10.426,10.426,0,0,1-2.988,2.261,8.046,8.046,0,0,1-3.641.822,13.028,13.028,0,0,1-5.186-.961,11.148,11.148,0,0,1-3.778-2.608A10.982,10.982,0,0,1,111.4,32.9a13.681,13.681,0,0,1-.79-4.667,11.99,11.99,0,0,1,1.439-5.765,21.565,21.565,0,0,1,3.494-4.8,16.768,16.768,0,0,1-1.028-5.49,9.286,9.286,0,0,1,.962-4.153,11.588,11.588,0,0,1,6.048-5.662,10.529,10.529,0,0,1,4.055-.824,10.024,10.024,0,0,1,3.986.824A9.492,9.492,0,0,1,132.933,4.8a12.536,12.536,0,0,1,2.337,3.984,15.21,15.21,0,0,1,.893,5.392,51.68,51.68,0,0,1-.481,6.731,47.09,47.09,0,0,1-1.511,7.143,9.6,9.6,0,0,0,4.59-1.028,12.758,12.758,0,0,0,3.254-2.432,12.951,12.951,0,0,0,2.124-2.912Q144.927,20.172,145.475,19.212Zm-19.836,18.5q1.583,0,3.1-2.3a27.255,27.255,0,0,0,2.754-5.721,20,20,0,0,1-6.438-1.576,18.49,18.49,0,0,1-4.716-3.014,2.69,2.69,0,0,0-.137.856v.993a19.057,19.057,0,0,0,.344,3.391,18.534,18.534,0,0,0,1,3.528,8.55,8.55,0,0,0,1.687,2.74A3.214,3.214,0,0,0,125.639,37.71Zm6.413-9.728a52.48,52.48,0,0,0,1.747-6.954,36.413,36.413,0,0,0,.651-6.406,13.277,13.277,0,0,0-.822-5.207A13.088,13.088,0,0,0,132.6,7.5a6.969,6.969,0,0,0-1.576-1.713,7.534,7.534,0,0,0-2.3-1.2,9.868,9.868,0,0,0-3.117-.445,7.7,7.7,0,0,0-2.638.514A8.867,8.867,0,0,0,120.338,6.2a8.645,8.645,0,0,0-2.055,2.535,7.182,7.182,0,0,0-.822,3.494,16.8,16.8,0,0,0,.411,3.494,18.284,18.284,0,0,1,3.837-2.3,8.437,8.437,0,0,1,3.22-.788q2.055,0,2.055,1.576,0,.343-.651,1.028t-1.576,1.713q-.925,1.028-1.953,2.4a13.406,13.406,0,0,0-1.713,3.083,14.971,14.971,0,0,0,4.385,3.734A15.155,15.155,0,0,0,132.053,27.982Zm10.824-13.359a3.164,3.164,0,0,0-.034-.445.38.38,0,0,1,.137-.377,1.683,1.683,0,0,1,.651-.24,7.426,7.426,0,0,1,1.439-.1,5.05,5.05,0,0,1,2.124.548,10.2,10.2,0,0,1,2.192,1.4,9.676,9.676,0,0,1,1.747,1.884,3.567,3.567,0,0,1,.719,2.055,23.926,23.926,0,0,1-.24,2.877q-.24,1.85-.582,4.042t-.617,4.453q-.274,2.261-.343,4.145a15.05,15.05,0,0,0,.137,3.049q.206,1.165.959,1.165.959,0,2.021-1.85a31.094,31.094,0,0,0,2.09-4.624q1.028-2.775,1.952-6.029t1.644-6.132q.719-2.877,1.13-4.9t.411-2.3a4.476,4.476,0,0,0-.171-1.267,3.549,3.549,0,0,1-.171-.959.685.685,0,0,1,.274-.582,2.171,2.171,0,0,1,1.165-.206,5.879,5.879,0,0,1,1.953.377,7.583,7.583,0,0,1,1.987,1.062,6.442,6.442,0,0,1,1.541,1.61,3.569,3.569,0,0,1,.617,2.021q0,.548-.171,2.227t-.445,4.111q-.274,2.432-.548,5.378t-.514,5.926q-.24,2.98-.308,5.789t.069,4.967a13.676,13.676,0,0,0,.582,3.46q.445,1.3,1.267,1.3a3.612,3.612,0,0,0,2.706-1.747,20.8,20.8,0,0,0,2.5-4.487q1.165-2.74,2.192-6.029t1.815-6.44q.788-3.151,1.37-5.721t.856-3.8q.274-1.028,1.062-.891t.651,1.1q-.274,1.37-.891,4.145t-1.541,6.166q-.925,3.391-2.124,6.919a46.66,46.66,0,0,1-2.706,6.44,20.974,20.974,0,0,1-3.288,4.8,5.246,5.246,0,0,1-3.837,1.884,4.688,4.688,0,0,1-3.049-1.028,8.238,8.238,0,0,1-2.124-2.706,17.18,17.18,0,0,1-1.37-3.837,31.28,31.28,0,0,1-.719-4.419,70.017,70.017,0,0,1-.068-12.058,47.333,47.333,0,0,1-2.329,7.742q-.617,1.439-1.37,2.843a13.4,13.4,0,0,1-1.713,2.5,8.024,8.024,0,0,1-2.124,1.747,4.98,4.98,0,0,1-2.466.651A4.713,4.713,0,0,1,145.652,41a8.841,8.841,0,0,1-2.124-3.083,16.981,16.981,0,0,1-1.13-4.008,25.673,25.673,0,0,1-.343-4.008q0-1.85.137-4.282t.274-4.761q.137-2.329.274-4.076T142.877,14.622Zm66.454,5.344a.855.855,0,0,1,.308-.719,1,1,0,0,1,1.3,0,1.027,1.027,0,0,1,.308.856A30.9,30.9,0,0,1,210.7,24.8q-.548,3.186-1.61,7.022t-2.569,7.913a46.211,46.211,0,0,1-3.46,7.4,23.4,23.4,0,0,1-4.316,5.481,7.374,7.374,0,0,1-5.035,2.158,5.434,5.434,0,0,1-3.665-1.678,18.6,18.6,0,0,1-3.46-4.624,43.649,43.649,0,0,1-3.049-7.022,76.427,76.427,0,0,1-2.432-8.872,100.566,100.566,0,0,1-1.61-10.105,99.54,99.54,0,0,1-.582-10.859,77.015,77.015,0,0,1,.514-8.358q.514-4.659,1.336-9.591A22.314,22.314,0,0,0,178.3-6.2q-1.165.137-2.535.274t-2.809.411a.765.765,0,0,1-.754-.1.844.844,0,0,1-.308-.548.842.842,0,0,1,.206-.617,1.447,1.447,0,0,1,.856-.445q1.37-.343,3.323-.651t4.83-.514q.754-4.522,1.678-8.7t1.816-7.4a47.041,47.041,0,0,1,1.678-5.138q.788-1.918,1.267-1.918a6.846,6.846,0,0,1,1.953.377,6.741,6.741,0,0,1,2.329,1.336,7.9,7.9,0,0,1,1.918,2.535,8.683,8.683,0,0,1,.788,3.905,35.642,35.642,0,0,1-.754,6.406q-.754,3.939-1.713,8.8,2.466.206,4.522.411t3.7.48a.931.931,0,0,1,.685.377.971.971,0,0,1,.171.651.827.827,0,0,1-.343.582,1,1,0,0,1-.788.171q-1.507-.206-2.98-.343T194.4-6.136q-1.37-.137-2.672-.206-.959,4.933-1.678,10.174a76.256,76.256,0,0,0-.719,10.379q0,2.466.1,6.132t.377,7.776q.274,4.111.754,8.221a69.258,69.258,0,0,0,1.233,7.4,23.506,23.506,0,0,0,1.781,5.309q1.028,2.021,2.466,2.021t3.014-1.884a24.9,24.9,0,0,0,3.049-4.83,61.292,61.292,0,0,0,2.775-6.543q1.3-3.6,2.3-7.022t1.576-6.337A24.694,24.694,0,0,0,209.331,19.966Z" transform="translate(5.24 44.705)"/>
  </g>
</svg>
