<svg xmlns="http://www.w3.org/2000/svg" xmlns:xlink="http://www.w3.org/1999/xlink" viewBox="0 0 313 124">
  <defs>
    <style>
      .cls-1 {
        clip-path: url(#clip-Web_1920_1);
      }

      .cls-2 {
        fill: #fff;
      }
    </style>
    <clipPath id="clip-Web_1920_1">
      <rect width="313" height="124"/>
    </clipPath>
  </defs>
  <g id="Web_1920_1" data-name="Web 1920 – 1" class="cls-1">
    <path id="Path_372" data-name="Path 372" class="cls-2" d="M23.79-210.423a16.869,16.869,0,0,1,7.223,1.417,16.062,16.062,0,0,1,5.075,3.657,18.386,18.386,0,0,1,3.292,5.029,34.119,34.119,0,0,1,1.92,5.532,40.239,40.239,0,0,1,.96,5.12q.274,2.377.457,3.84a3.122,3.122,0,0,1-.137,1.509.815.815,0,0,1-.64.549,1.123,1.123,0,0,1-.823-.274,1.931,1.931,0,0,1-.594-1.143q-.274-1.006-.594-2.789t-.777-3.886a41.436,41.436,0,0,0-1.189-4.3,16.758,16.758,0,0,0-1.874-3.932,9.976,9.976,0,0,0-2.88-2.88,7.315,7.315,0,0,0-4.115-1.143,14.933,14.933,0,0,0-8.046,2.1,18.992,18.992,0,0,0-5.715,5.532,30.133,30.133,0,0,0-3.749,7.909,65.739,65.739,0,0,0-2.194,9.235,83.776,83.776,0,0,0-1.006,9.418q-.229,4.663-.229,8.595a87.679,87.679,0,0,0,.5,8.778,100.756,100.756,0,0,0,1.554,10.058,98.4,98.4,0,0,0,2.606,10.012,49.156,49.156,0,0,0,3.657,8.732,22.018,22.018,0,0,0,4.8,6.172,8.942,8.942,0,0,0,5.989,2.332,9.549,9.549,0,0,0,6.72-2.926,29.62,29.62,0,0,0,5.486-7.406,66.905,66.905,0,0,0,4.252-9.692q1.829-5.212,3.017-9.829t1.829-7.818l.731-3.657a1.894,1.894,0,0,1,.5-1.143,1.155,1.155,0,0,1,.777-.411.679.679,0,0,1,.594.457,2.6,2.6,0,0,1,.137,1.372q-.091.64-.777,4.435t-2.057,9.1q-1.372,5.3-3.566,11.292a63.306,63.306,0,0,1-5.3,11.109A32.824,32.824,0,0,1,32.43-111.9a14.229,14.229,0,0,1-9.281,3.337,13.777,13.777,0,0,1-6.995-2.057,29.387,29.387,0,0,1-6.812-5.669,51.188,51.188,0,0,1-6.218-8.595A66.867,66.867,0,0,1-1.95-135.72a78.051,78.051,0,0,1-3.383-12.344,70.821,70.821,0,0,1-1.234-13.258A71.673,71.673,0,0,1-4.1-180.432a58.127,58.127,0,0,1,6.675-15.635,36.017,36.017,0,0,1,9.692-10.515A19.782,19.782,0,0,1,23.79-210.423ZM87.7-157.116a1.7,1.7,0,0,1,.869-.914,1.24,1.24,0,0,1,.869-.046.97.97,0,0,1,.549.549,1.1,1.1,0,0,1-.091.96q-.64,1.372-1.829,3.657a18.988,18.988,0,0,1-3.337,4.48,20,20,0,0,1-5.3,3.795,16.727,16.727,0,0,1-7.638,1.6,34.216,34.216,0,0,1-2.429,5.486,22.727,22.727,0,0,1-3.209,4.48,13.916,13.916,0,0,1-3.988,3.017,10.738,10.738,0,0,1-4.86,1.1,17.387,17.387,0,0,1-6.921-1.282,14.877,14.877,0,0,1-5.043-3.481,14.657,14.657,0,0,1-3.117-5.13,18.26,18.26,0,0,1-1.054-6.228,16,16,0,0,1,1.92-7.694,28.784,28.784,0,0,1,4.663-6.411,22.378,22.378,0,0,1-1.372-7.328,12.393,12.393,0,0,1,1.284-5.542,15.466,15.466,0,0,1,3.348-4.534,15.612,15.612,0,0,1,4.724-3.022,14.053,14.053,0,0,1,5.412-1.1,13.378,13.378,0,0,1,5.32,1.1,12.67,12.67,0,0,1,4.495,3.254,16.731,16.731,0,0,1,3.119,5.317,20.3,20.3,0,0,1,1.192,7.2,68.974,68.974,0,0,1-.641,8.983,62.843,62.843,0,0,1-2.017,9.534,12.806,12.806,0,0,0,6.126-1.372,17.028,17.028,0,0,0,4.343-3.246,17.284,17.284,0,0,0,2.834-3.886Q86.964-155.836,87.7-157.116ZM61.222-132.429q2.113,0,4.135-3.063a36.382,36.382,0,0,0,3.676-7.635,26.692,26.692,0,0,1-8.592-2.1,24.682,24.682,0,0,1-6.295-4.023,3.59,3.59,0,0,0-.183,1.143v1.326a25.434,25.434,0,0,0,.459,4.526,24.738,24.738,0,0,0,1.332,4.709,11.412,11.412,0,0,0,2.252,3.657A4.29,4.29,0,0,0,61.222-132.429Zm8.559-12.984a70.036,70.036,0,0,0,2.332-9.281,48.6,48.6,0,0,0,.869-8.549,17.721,17.721,0,0,0-1.1-6.949,17.469,17.469,0,0,0-1.372-2.56,9.3,9.3,0,0,0-2.1-2.286,10.051,10.051,0,0,0-3.063-1.6,13.169,13.169,0,0,0-4.16-.594,10.273,10.273,0,0,0-3.52.686,11.835,11.835,0,0,0-3.52,2.057,11.538,11.538,0,0,0-2.743,3.383,9.585,9.585,0,0,0-1.1,4.663,22.425,22.425,0,0,0,.549,4.663,24.4,24.4,0,0,1,5.12-3.063,11.259,11.259,0,0,1,4.3-1.052q2.743,0,2.743,2.1,0,.457-.869,1.372t-2.1,2.286q-1.234,1.372-2.606,3.2a17.89,17.89,0,0,0-2.286,4.115A19.979,19.979,0,0,0,61-147.836,20.225,20.225,0,0,0,69.781-145.413ZM90.354-128.04a3.622,3.622,0,0,1-3.155-2.1,18.726,18.726,0,0,1-1.966-5.395,49.3,49.3,0,0,1-1.006-7.315q-.274-4.023-.32-7.863t.046-7.041q.091-3.2.091-4.846a16.511,16.511,0,0,0-.32-3.749,8.948,8.948,0,0,0-.686-1.966,11.254,11.254,0,0,0-.686-1.143,2.208,2.208,0,0,1-.32-1.28,2.27,2.27,0,0,1,1.006-2.194,7.009,7.009,0,0,1,3.2-.549,13.168,13.168,0,0,1,4.16.594,10.056,10.056,0,0,1,3.063,1.6A10.151,10.151,0,0,1,95.612-169a13.934,13.934,0,0,1,1.417,2.652,20.989,20.989,0,0,1,1.28,7.041,57.983,57.983,0,0,1,4.3-9.144q1.006-1.737,2.149-3.383a23.582,23.582,0,0,1,2.377-2.926,11.543,11.543,0,0,1,2.606-2.057,5.522,5.522,0,0,1,2.743-.777,9.361,9.361,0,0,1,5.578,1.511,9.65,9.65,0,0,1,3.2,3.937,17.651,17.651,0,0,1,1.417,5.447,57.321,57.321,0,0,1,.32,6.043,80.706,80.706,0,0,1-.64,8.972q-.64,5.493-1.417,11.627t-1.554,12.36q-.777,6.225-1.052,11.214a41.99,41.99,0,0,0,.183,8.1q.457,3.113,2.1,3.113,1.28,0,3.109-3.2a64.544,64.544,0,0,0,3.795-8.183q1.966-4.983,3.932-11.064t3.657-11.841q1.692-5.76,2.926-10.515t1.783-7.041a1.931,1.931,0,0,1,.594-1.143.966.966,0,0,1,.823-.229,1.106,1.106,0,0,1,.686.5,1.659,1.659,0,0,1,.183,1.143q-.366,1.92-1.189,5.3t-1.966,7.681q-1.143,4.3-2.56,9.1t-3.017,9.555q-1.6,4.755-3.292,9.1t-3.292,7.678a27.137,27.137,0,0,1-3.155,5.257q-1.554,1.922-2.926,1.922a7.075,7.075,0,0,1-6.08-3.155,21.268,21.268,0,0,1-3.246-8.275,65.9,65.9,0,0,1-1.1-11.7q-.091-6.583.229-13.487t.869-13.487q.549-6.583.823-11.7a61.6,61.6,0,0,0,0-8.275q-.274-3.155-1.554-3.154-1.463,0-3.063,2.194a30.287,30.287,0,0,0-3.155,5.806,82.855,82.855,0,0,0-2.972,8.183q-1.417,4.572-2.469,9.281T97.3-139.835a56.465,56.465,0,0,0-.64,7.863,3.563,3.563,0,0,1-1.417,2.7Q93.829-128.04,90.354-128.04Zm86.589-28.071a1.141,1.141,0,0,1,.411-.96,1.393,1.393,0,0,1,.869-.32,1.393,1.393,0,0,1,.869.32,1.371,1.371,0,0,1,.411,1.143,41.237,41.237,0,0,1-.732,6.263q-.731,4.252-2.149,9.372t-3.429,10.561a61.674,61.674,0,0,1-4.617,9.875,31.227,31.227,0,0,1-5.76,7.315,9.842,9.842,0,0,1-6.72,2.88,7.252,7.252,0,0,1-4.892-2.24,24.825,24.825,0,0,1-4.617-6.172,58.255,58.255,0,0,1-4.069-9.372,102,102,0,0,1-3.246-11.841,134.227,134.227,0,0,1-2.149-13.487,132.854,132.854,0,0,1-.777-14.492,102.787,102.787,0,0,1,.686-11.155q.686-6.218,1.783-12.8a29.788,29.788,0,0,0-3.292.183q-1.554.183-3.383.366t-3.749.549a1.021,1.021,0,0,1-1.006-.137,1.126,1.126,0,0,1-.411-.731,1.123,1.123,0,0,1,.274-.823,1.931,1.931,0,0,1,1.143-.594q1.829-.457,4.435-.869t6.446-.686q1.006-6.035,2.24-11.612t2.423-9.875a62.788,62.788,0,0,1,2.24-6.858q1.052-2.56,1.692-2.56a9.141,9.141,0,0,1,2.606.5,9,9,0,0,1,3.109,1.783,10.538,10.538,0,0,1,2.56,3.383,11.588,11.588,0,0,1,1.051,5.212,47.572,47.572,0,0,1-1.006,8.549q-1.006,5.257-2.286,11.749,3.292.275,6.035.549t4.938.64a1.242,1.242,0,0,1,.914.5,1.3,1.3,0,0,1,.229.869,1.1,1.1,0,0,1-.457.777,1.337,1.337,0,0,1-1.051.229q-2.012-.275-3.977-.457t-3.52-.366q-1.829-.183-3.566-.274-1.28,6.583-2.24,13.578a101.773,101.773,0,0,0-.96,13.852q0,3.292.137,8.183t.5,10.378q.366,5.486,1.006,10.972a92.426,92.426,0,0,0,1.646,9.875,31.372,31.372,0,0,0,2.377,7.086q1.372,2.7,3.292,2.7t4.023-2.514a33.23,33.23,0,0,0,4.069-6.446,81.8,81.8,0,0,0,3.7-8.732q1.737-4.8,3.063-9.372t2.1-8.458A32.957,32.957,0,0,0,176.944-156.111Zm48.644-.366a1.993,1.993,0,0,1,.686-1.28,1.339,1.339,0,0,1,.914-.32.923.923,0,0,1,.686.5,1.341,1.341,0,0,1,0,1.189q-.549,1.737-1.737,5.44t-2.926,8.184q-1.737,4.48-4.023,9.235a66.193,66.193,0,0,1-4.938,8.641,30.979,30.979,0,0,1-5.669,6.4,9.643,9.643,0,0,1-6.218,2.514,9.612,9.612,0,0,1-5.532-1.646,13.743,13.743,0,0,1-4.16-4.709,27.629,27.629,0,0,1-2.743-7.406,46.378,46.378,0,0,1-1.1-9.646,22.857,22.857,0,0,1-4.069,4.937,7.391,7.391,0,0,1-5.075,2.012,5.69,5.69,0,0,1-3.246-1.189,13,13,0,0,1-3.109-3.2,19.686,19.686,0,0,1-2.377-4.663,16.257,16.257,0,0,1-.96-5.578,22.358,22.358,0,0,1,1.646-7.681,30.235,30.235,0,0,1,4.8-8.321,28.517,28.517,0,0,1,7.772-6.675,20.457,20.457,0,0,1,10.652-2.743,9.852,9.852,0,0,1,3.977.777,9.679,9.679,0,0,1,3.017,2.012,8.487,8.487,0,0,1,1.874,2.789,7.9,7.9,0,0,1,.64,3.017q0,1.463-.457,1.372a4.646,4.646,0,0,1-1.463-.823,17.52,17.52,0,0,0-2.743-1.554,9.765,9.765,0,0,0-4.206-.823,8.421,8.421,0,0,0-5.76,2.689,29.7,29.7,0,0,0-5.075,6.472,40.029,40.029,0,0,0-3.612,7.976,23.792,23.792,0,0,0-1.372,7.2,20.8,20.8,0,0,0,.32,3.692q.32,1.777,1.6,1.777.914,0,2.194-1.737a28.9,28.9,0,0,0,2.514-4.206q1.234-2.469,2.332-5.075t1.737-4.343q.183-.549.366-1.052t.366-.96a11.824,11.824,0,0,1,2.057-3.337,3.385,3.385,0,0,1,2.514-1.234,3.951,3.951,0,0,1,2.7,1.006,8.881,8.881,0,0,1,1.92,2.423,13.7,13.7,0,0,1,1.189,2.88,9.224,9.224,0,0,1,.411,2.377,23.519,23.519,0,0,1-.411,2.972q-.411,2.332-.823,5.532t-.64,6.737a38.3,38.3,0,0,0,.091,6.526,13.239,13.239,0,0,0,1.372,4.921,3.532,3.532,0,0,0,3.337,1.932,6.42,6.42,0,0,0,4.435-2.24,30.655,30.655,0,0,0,4.343-5.669,76.876,76.876,0,0,0,4.069-7.635q1.966-4.206,3.52-8.229t2.7-7.269Q225.039-154.831,225.587-156.476ZM219.461-144.5a39.336,39.336,0,0,1,2.1-13.35,33.758,33.758,0,0,1,5.3-9.829,24.237,24.237,0,0,1,6.949-6.081,14.494,14.494,0,0,1,7.04-2.1,7.89,7.89,0,0,1,3.383.686,8.35,8.35,0,0,1,2.514,1.783,7.968,7.968,0,0,1,1.6,2.377,6.072,6.072,0,0,1,.549,2.377,4.692,4.692,0,0,1-.366,1.92,2.962,2.962,0,0,1-.777,1.143.552.552,0,0,1-.777,0,2.1,2.1,0,0,1-.366-1.509,7.3,7.3,0,0,0-.92-3.7,3.4,3.4,0,0,0-3.219-1.6,6.373,6.373,0,0,0-4.92,2.52,21.089,21.089,0,0,0-3.587,6.229,42.03,42.03,0,0,0-2.162,8.015,47.079,47.079,0,0,0-.736,7.878,31.442,31.442,0,0,0,1.143,7.923,46.247,46.247,0,0,0,2.926,8.107,32.074,32.074,0,0,0,3.84,6.32q2.057,2.566,3.886,2.565a10.512,10.512,0,0,0,6.263-2.24,28.612,28.612,0,0,0,5.76-5.76,64.238,64.238,0,0,0,5.029-7.681q2.332-4.16,4.16-8.046t3.109-6.949q1.28-3.063,1.829-4.252a1.551,1.551,0,0,1,.823-.96,1.606,1.606,0,0,1,.96-.137,1.155,1.155,0,0,1,.686.457.824.824,0,0,1,0,.914q-.64,1.372-1.92,4.755t-3.246,7.589q-1.966,4.206-4.572,8.732a51.173,51.173,0,0,1-5.852,8.229,31,31,0,0,1-7.132,6.081,15.749,15.749,0,0,1-8.366,2.377,17.3,17.3,0,0,1-8.537-2.149,22.132,22.132,0,0,1-6.64-5.623,25.856,25.856,0,0,1-4.264-7.909A28.256,28.256,0,0,1,219.461-144.5Zm83.3-11.612a1.141,1.141,0,0,1,.411-.96,1.393,1.393,0,0,1,.869-.32,1.393,1.393,0,0,1,.869.32,1.371,1.371,0,0,1,.411,1.143,41.236,41.236,0,0,1-.731,6.263q-.732,4.252-2.149,9.372t-3.429,10.561a61.671,61.671,0,0,1-4.617,9.875,31.228,31.228,0,0,1-5.76,7.315,9.842,9.842,0,0,1-6.72,2.88,7.253,7.253,0,0,1-4.892-2.24,24.826,24.826,0,0,1-4.617-6.172,58.25,58.25,0,0,1-4.069-9.372,102,102,0,0,1-3.246-11.841,134.24,134.24,0,0,1-2.149-13.487,132.857,132.857,0,0,1-.777-14.492,102.786,102.786,0,0,1,.686-11.155q.686-6.218,1.783-12.8a29.788,29.788,0,0,0-3.292.183q-1.554.183-3.383.366t-3.749.549a1.021,1.021,0,0,1-1.006-.137,1.126,1.126,0,0,1-.411-.731,1.123,1.123,0,0,1,.274-.823,1.932,1.932,0,0,1,1.143-.594q1.829-.457,4.435-.869t6.446-.686q1.006-6.035,2.24-11.612t2.423-9.875a62.775,62.775,0,0,1,2.24-6.858q1.052-2.56,1.692-2.56a9.141,9.141,0,0,1,2.606.5,9,9,0,0,1,3.109,1.783,10.538,10.538,0,0,1,2.56,3.383,11.589,11.589,0,0,1,1.051,5.212A47.57,47.57,0,0,1,282-205.44q-1.006,5.257-2.286,11.749,3.292.275,6.035.549t4.938.64a1.242,1.242,0,0,1,.914.5,1.3,1.3,0,0,1,.229.869,1.1,1.1,0,0,1-.457.777,1.337,1.337,0,0,1-1.052.229q-2.012-.275-3.977-.457t-3.52-.366q-1.829-.183-3.566-.274-1.28,6.583-2.24,13.578a101.78,101.78,0,0,0-.96,13.852q0,3.292.137,8.183t.5,10.378q.366,5.486,1.006,10.972a92.422,92.422,0,0,0,1.646,9.875,31.37,31.37,0,0,0,2.377,7.086q1.372,2.7,3.292,2.7t4.023-2.514a33.227,33.227,0,0,0,4.069-6.446,81.8,81.8,0,0,0,3.7-8.732q1.737-4.8,3.063-9.372t2.1-8.458A32.955,32.955,0,0,0,302.759-156.111Z" transform="translate(7.038 225.25)"/>
  </g>
</svg>
