<svg xmlns="http://www.w3.org/2000/svg" xmlns:xlink="http://www.w3.org/1999/xlink" viewBox="0 0 268 124">
  <defs>
    <style>
      .cls-1 {
        clip-path: url(#clip-Web_1920_1);
      }

      .cls-2 {
        fill: #fff;
      }
    </style>
    <clipPath id="clip-Web_1920_1">
      <rect width="268" height="124"/>
    </clipPath>
  </defs>
  <g id="Web_1920_1" data-name="Web 1920 – 1" class="cls-1">
    <path id="Path_371" data-name="Path 371" class="cls-2" d="M16.939-199.29a2.8,2.8,0,0,1-1.912-.733,2.543,2.543,0,0,1-.829-2.008,4.48,4.48,0,0,1,.7-2.071,10.614,10.614,0,0,1,2.135-2.55,16.318,16.318,0,0,1,3.537-2.39,17.526,17.526,0,0,1,4.908-1.593,48.308,48.308,0,0,0,1.657-7.9,58.872,58.872,0,0,0,.51-7.2q0-.892-.064-2.39t-.255-3.219a29.038,29.038,0,0,0-.606-3.474,14.107,14.107,0,0,0-1.147-3.187,7.011,7.011,0,0,0-1.848-2.327,4.106,4.106,0,0,0-2.645-.892,14.462,14.462,0,0,0-8.86,3.059,31.482,31.482,0,0,0-7.394,8.159A20.552,20.552,0,0,1,8.175-224.4a44.406,44.406,0,0,1,2.2,6.852,59.321,59.321,0,0,1,1.211,6.979,55.638,55.638,0,0,1,.382,6.055q0,3.059-.351,6.916t-1.084,7.808a63.5,63.5,0,0,1-1.944,7.744,33.213,33.213,0,0,1-2.932,6.724,16.371,16.371,0,0,1-4.016,4.717,8.2,8.2,0,0,1-5.163,1.785,2.867,2.867,0,0,1-1.753-.542,5.2,5.2,0,0,1-1.307-1.466A8.762,8.762,0,0,1-7.5-172.9q-.351-1.147-.606-2.358a33.331,33.331,0,0,1-.574-6.5q0-3.314.287-8.254T-7.313-200.6q.8-5.641,2.263-11.632a70.519,70.519,0,0,1,3.824-11.409,18.324,18.324,0,0,0-2.709-5.45A4.416,4.416,0,0,0-7.409-231.1a5.177,5.177,0,0,0-3.378,1.339,16.009,16.009,0,0,0-2.8,3.059,19.374,19.374,0,0,0-1.912,3.314,6.9,6.9,0,0,0-.7,2.167,1.352,1.352,0,0,1-.319.892,1.344,1.344,0,0,1-.733.478.777.777,0,0,1-.733-.191,1.487,1.487,0,0,1-.319-1.115,21.656,21.656,0,0,1,3.251-6.31,19.151,19.151,0,0,1,2.071-2.358,15.015,15.015,0,0,1,2.677-2.059,14.308,14.308,0,0,1,3.346-1.466,14.163,14.163,0,0,1,4.079-.554,8.851,8.851,0,0,1,3.251.574,11.584,11.584,0,0,1,2.741,1.53,30.31,30.31,0,0,1,8.095-8.4,18.448,18.448,0,0,1,10.708-3.2,11.5,11.5,0,0,1,6.342,1.657,14.074,14.074,0,0,1,4.175,4.047,16.669,16.669,0,0,1,2.295,5.1,19.666,19.666,0,0,1,.7,4.876,48.025,48.025,0,0,1-.319,5.1,44.556,44.556,0,0,1-1.115,6.087,38.9,38.9,0,0,1-2.167,6.246,23.548,23.548,0,0,1-3.41,5.545,15.984,15.984,0,0,1-4.876,3.952A13.925,13.925,0,0,1,16.939-199.29ZM3.363-194.127a92.093,92.093,0,0,0-1.052-13.991,112.8,112.8,0,0,0-2.518-12.27A73.12,73.12,0,0,0-3.4-210.795q-1.295,5-2.116,10.007t-1.2,9.848q-.379,4.844-.379,9.051,0,1.339.19,3.314a25.822,25.822,0,0,0,.665,3.856,11.639,11.639,0,0,0,1.267,3.187,2.352,2.352,0,0,0,2.059,1.307A2.691,2.691,0,0,0-.755-171.5a12.082,12.082,0,0,0,1.647-3.314,32.58,32.58,0,0,0,1.172-4.621q.475-2.581.76-5.258t.412-5.131Q3.363-192.279,3.363-194.127Zm13.7-6.183a4.958,4.958,0,0,0,2.581-.7,8.517,8.517,0,0,0,2.167-1.88,13.809,13.809,0,0,0,1.785-2.8,28.527,28.527,0,0,0,1.434-3.537,11,11,0,0,0-5,1.753,12.711,12.711,0,0,0-3.283,3.028,5.092,5.092,0,0,0-1.147,2.868Q15.6-200.31,17.067-200.31Zm47.8-4.653a1.188,1.188,0,0,1,.606-.637.866.866,0,0,1,.606-.032.676.676,0,0,1,.382.382.766.766,0,0,1-.064.669q-.446.956-1.275,2.549a13.239,13.239,0,0,1-2.326,3.123,13.944,13.944,0,0,1-3.7,2.645,11.66,11.66,0,0,1-5.324,1.115,23.852,23.852,0,0,1-1.693,3.824,15.842,15.842,0,0,1-2.237,3.123,9.7,9.7,0,0,1-2.78,2.1,7.485,7.485,0,0,1-3.388.765,12.123,12.123,0,0,1-4.825-.894,10.373,10.373,0,0,1-3.515-2.427,10.216,10.216,0,0,1-2.173-3.576,12.728,12.728,0,0,1-.735-4.342,11.155,11.155,0,0,1,1.339-5.363,20.063,20.063,0,0,1,3.251-4.469,15.6,15.6,0,0,1-.956-5.108,8.639,8.639,0,0,1,.9-3.864,10.78,10.78,0,0,1,2.334-3.161,10.886,10.886,0,0,1,3.293-2.107,9.8,9.8,0,0,1,3.773-.766,9.327,9.327,0,0,1,3.708.767,8.832,8.832,0,0,1,3.133,2.269,11.665,11.665,0,0,1,2.174,3.706,14.151,14.151,0,0,1,.831,5.017,48.078,48.078,0,0,1-.447,6.262,43.811,43.811,0,0,1-1.406,6.646,8.926,8.926,0,0,0,4.27-.956,11.868,11.868,0,0,0,3.028-2.263,12.045,12.045,0,0,0,1.976-2.709Q64.356-204.07,64.866-204.963ZM46.412-187.753q1.473,0,2.882-2.135a25.359,25.359,0,0,0,2.562-5.322,18.606,18.606,0,0,1-5.989-1.466,17.2,17.2,0,0,1-4.388-2.8,2.5,2.5,0,0,0-.127.8v.924a17.73,17.73,0,0,0,.32,3.155,17.24,17.24,0,0,0,.929,3.283,7.954,7.954,0,0,0,1.57,2.55A2.99,2.99,0,0,0,46.412-187.753Zm5.967-9.051A48.827,48.827,0,0,0,54-203.273a33.877,33.877,0,0,0,.606-5.96,12.352,12.352,0,0,0-.765-4.844,12.167,12.167,0,0,0-.956-1.785,6.481,6.481,0,0,0-1.466-1.593,7.009,7.009,0,0,0-2.135-1.115,9.178,9.178,0,0,0-2.9-.414,7.16,7.16,0,0,0-2.454.478,8.252,8.252,0,0,0-2.454,1.434,8.046,8.046,0,0,0-1.912,2.358,6.682,6.682,0,0,0-.765,3.251,15.632,15.632,0,0,0,.382,3.251,17.011,17.011,0,0,1,3.569-2.135,7.851,7.851,0,0,1,3-.733q1.912,0,1.912,1.466,0,.319-.606.956t-1.466,1.593q-.86.956-1.817,2.231a12.471,12.471,0,0,0-1.593,2.868,13.93,13.93,0,0,0,4.079,3.474A14.1,14.1,0,0,0,52.378-196.8Zm37.885-7.967a.982.982,0,0,1,.351-.669.783.783,0,0,1,.574-.191.58.58,0,0,1,.446.287,1,1,0,0,1,.032.765q-.319,1.785-1.02,5.577t-1.689,8.477q-.988,4.685-2.2,9.624t-2.581,9.019a39.776,39.776,0,0,1-2.836,6.693q-1.466,2.613-2.868,2.613a6.9,6.9,0,0,1-3.856-1.021,8.106,8.106,0,0,1-2.55-2.681,14.427,14.427,0,0,1-1.53-3.7,30.606,30.606,0,0,1-.8-4.117,37.55,37.55,0,0,1-.287-3.925q-.032-1.851-.032-3.064,0-.638.064-2.075t.223-3.383q.159-1.947.319-4.213t.351-4.564q.382-5.362.956-11.745a3.533,3.533,0,0,0-1.434.361q-.8.36-1.753.787a19.494,19.494,0,0,1-2.106.787,8.076,8.076,0,0,1-2.43.361,2.311,2.311,0,0,1-1.855-.832,6.677,6.677,0,0,1-1.151-2.079A11.775,11.775,0,0,1,60-210.368a24.676,24.676,0,0,1-.16-2.718,16.3,16.3,0,0,1,.354-3.263,15.253,15.253,0,0,1,1-3.166,8.585,8.585,0,0,1,1.542-2.4,2.691,2.691,0,0,1,1.992-.96,2.059,2.059,0,0,1,1.638.7,4.735,4.735,0,0,1,.932,1.824,12.29,12.29,0,0,1,.417,2.559,26.482,26.482,0,0,1,.032,2.912,66.27,66.27,0,0,1-1,7.935q1.4-.765,2.932-1.466,1.275-.51,2.8-.988a9.644,9.644,0,0,1,2.868-.478,4.438,4.438,0,0,1,3.824,1.848,12.047,12.047,0,0,1,1.912,4.844,33.716,33.716,0,0,1,.51,6.852q-.064,3.856-.414,7.84t-.86,7.84q-.51,3.856-.829,6.852a47.891,47.891,0,0,0-.319,4.844q0,1.848.7,1.849.637,0,1.593-2.358a58.241,58.241,0,0,0,1.976-5.991q1.02-3.633,2.1-8.095t2.04-8.637q.956-4.175,1.657-7.585T90.263-204.771ZM65.126-206.62a61.543,61.543,0,0,0,1.02-6.884q.064-1.275.064-2.518a11.8,11.8,0,0,0-.191-2.231,4.637,4.637,0,0,0-.574-1.593,1.212,1.212,0,0,0-1.084-.606q-.51,0-.988.8a9.839,9.839,0,0,0-.86,1.944,16.2,16.2,0,0,0-.606,2.518,15.761,15.761,0,0,0-.223,2.518,19.549,19.549,0,0,0,.159,2.55,7.532,7.532,0,0,0,.542,2.071,2.76,2.76,0,0,0,1.052,1.275A2.132,2.132,0,0,0,65.126-206.62Zm51.373,2.358a.8.8,0,0,1,.287-.669.971.971,0,0,1,.605-.223.971.971,0,0,1,.606.223.955.955,0,0,1,.287.8,28.746,28.746,0,0,1-.51,4.366q-.51,2.964-1.5,6.533t-2.39,7.362a42.994,42.994,0,0,1-3.219,6.884,21.767,21.767,0,0,1-4.016,5.1,6.861,6.861,0,0,1-4.685,2.008,5.056,5.056,0,0,1-3.41-1.562,17.305,17.305,0,0,1-3.219-4.3,40.607,40.607,0,0,1-2.836-6.533,71.1,71.1,0,0,1-2.263-8.254,93.574,93.574,0,0,1-1.5-9.4,92.613,92.613,0,0,1-.542-10.1,71.651,71.651,0,0,1,.478-7.776q.478-4.334,1.243-8.923a20.769,20.769,0,0,0-2.295.127q-1.084.127-2.358.255t-2.613.383a.712.712,0,0,1-.7-.1.785.785,0,0,1-.287-.51.783.783,0,0,1,.191-.574,1.346,1.346,0,0,1,.8-.414q1.275-.319,3.091-.606t4.494-.478q.7-4.207,1.562-8.095t1.689-6.884a43.765,43.765,0,0,1,1.562-4.78q.733-1.785,1.179-1.785a6.368,6.368,0,0,1,1.817.351,6.27,6.27,0,0,1,2.167,1.243A7.345,7.345,0,0,1,102-248.241a8.078,8.078,0,0,1,.733,3.633,33.161,33.161,0,0,1-.7,5.96q-.7,3.665-1.593,8.19,2.295.191,4.207.382t3.442.446a.866.866,0,0,1,.637.35.9.9,0,0,1,.159.606.769.769,0,0,1-.319.542.931.931,0,0,1-.733.159q-1.4-.191-2.773-.319t-2.454-.255q-1.275-.128-2.486-.191-.892,4.589-1.562,9.465a70.949,70.949,0,0,0-.669,9.656q0,2.295.1,5.7t.351,7.234q.255,3.824.7,7.649a64.426,64.426,0,0,0,1.147,6.884,21.868,21.868,0,0,0,1.657,4.94q.956,1.88,2.295,1.88a3.946,3.946,0,0,0,2.8-1.753,23.165,23.165,0,0,0,2.836-4.494,57.012,57.012,0,0,0,2.581-6.087q1.211-3.346,2.135-6.533t1.466-5.9A22.972,22.972,0,0,0,116.5-204.261Zm30.021-1.02a1.788,1.788,0,0,1,.7-1.084,1.047,1.047,0,0,1,.8-.159.948.948,0,0,1,.574.51.945.945,0,0,1,.032.861,28.758,28.758,0,0,1-6.081,10.1,78.225,78.225,0,0,1-9.948,9.019q1.841,3.7,3.493,8a90.867,90.867,0,0,1,2.89,8.891,85.051,85.051,0,0,1,1.969,9.4,63.012,63.012,0,0,1,.73,9.465,9.783,9.783,0,0,1-.636,3.474,8.6,8.6,0,0,1-1.908,3,9.6,9.6,0,0,1-3.116,2.1,10.661,10.661,0,0,1-4.261.8,9.12,9.12,0,0,1-5.659-1.88,16.907,16.907,0,0,1-4.324-5.035,34.317,34.317,0,0,1-3.116-7.33,82.113,82.113,0,0,1-2.13-8.732q-.858-4.557-1.367-9.21t-.763-8.86a11.157,11.157,0,0,1-4.557-4.3,11.509,11.509,0,0,1-1.625-5.545,9.542,9.542,0,0,1,1.4-5.258,8.3,8.3,0,0,1,4.525-3.506,119.475,119.475,0,0,1,2.135-19.313,87.955,87.955,0,0,1,4.462-15.393,58.96,58.96,0,0,1,6.119-11.632,46.169,46.169,0,0,1,7.011-8.127,26.89,26.89,0,0,1,7.139-4.749,16.7,16.7,0,0,1,6.6-1.53,10.028,10.028,0,0,1,3.7.7,9.057,9.057,0,0,1,3.187,2.135,10.364,10.364,0,0,1,2.231,3.6,14.455,14.455,0,0,1,.829,5.163,25.224,25.224,0,0,1-1.753,9.178A46.627,46.627,0,0,1,151.2-231.7a61.861,61.861,0,0,1-6.469,8.19q-3.633,3.888-7.362,7.234t-7.266,6.055q-3.537,2.709-6.215,4.557-.064.956-.064,1.912v5.1a29.191,29.191,0,0,1,4.129,4.43,43.789,43.789,0,0,1,3.937,6.151q2.477-1.912,4.668-3.824a51.638,51.638,0,0,0,4.066-3.952A32.163,32.163,0,0,0,144-200.214,26.209,26.209,0,0,0,146.52-205.281Zm.956-53.477a8.235,8.235,0,0,0-2.645.8,17.12,17.12,0,0,0-4.3,2.9,37.168,37.168,0,0,0-5.131,5.7,44.423,44.423,0,0,0-5.1,9.178,77.346,77.346,0,0,0-4.143,13.353,111.6,111.6,0,0,0-2.326,18.229q2.55-1.848,5.832-4.4t6.724-5.673q3.442-3.123,6.756-6.724a60.106,60.106,0,0,0,5.928-7.553,40.949,40.949,0,0,0,4.207-8.19,24.192,24.192,0,0,0,1.593-8.573,12.255,12.255,0,0,0-.478-3.474,8.662,8.662,0,0,0-1.434-2.868,7.174,7.174,0,0,0-2.326-1.976A6.587,6.587,0,0,0,147.476-258.758Zm-33.4,60.36a5.922,5.922,0,0,0-2.358,2.549,7.257,7.257,0,0,0-.7,3.442,9.916,9.916,0,0,0,.86,3.665,9.528,9.528,0,0,0,2.326,3.219q-.127-3.251-.159-5.8t-.032-4.143v-1.5Q114.013-197.7,114.077-198.4Zm10.517,14.724a25.656,25.656,0,0,0,2.773-1.179,20.663,20.663,0,0,0,2.773-1.625,29.579,29.579,0,0,0-3.091-4.972q-1.689-2.167-3.155-3.888.127,3.059.287,5.96T124.594-183.674Zm14.915,33.526a55.368,55.368,0,0,0-.733-8.86,88,88,0,0,0-1.944-8.987q-1.211-4.462-2.773-8.637t-3.219-7.744a16.9,16.9,0,0,1-3.091,1.944,13.752,13.752,0,0,1-2.9.988q.829,8.031,2.167,14.66a102.166,102.166,0,0,0,2.868,11.314,34.777,34.777,0,0,0,3.123,7.266q1.594,2.581,2.932,2.581a4.412,4.412,0,0,0,1.115-.159,2.67,2.67,0,0,0,1.147-.669,4.188,4.188,0,0,0,.924-1.37A5.829,5.829,0,0,0,139.509-150.147ZM172.9-204.963a1.188,1.188,0,0,1,.606-.637.865.865,0,0,1,.606-.032.676.676,0,0,1,.382.382.766.766,0,0,1-.064.669q-.446.956-1.275,2.549a13.24,13.24,0,0,1-2.326,3.123,13.943,13.943,0,0,1-3.7,2.645,11.66,11.66,0,0,1-5.324,1.115,23.85,23.85,0,0,1-1.693,3.824,15.843,15.843,0,0,1-2.237,3.123,9.7,9.7,0,0,1-2.78,2.1,7.484,7.484,0,0,1-3.388.765,12.123,12.123,0,0,1-4.825-.894,10.373,10.373,0,0,1-3.515-2.427,10.216,10.216,0,0,1-2.173-3.576,12.728,12.728,0,0,1-.735-4.342,11.155,11.155,0,0,1,1.339-5.363,20.064,20.064,0,0,1,3.251-4.469,15.6,15.6,0,0,1-.956-5.108,8.639,8.639,0,0,1,.9-3.864,10.78,10.78,0,0,1,2.334-3.161,10.886,10.886,0,0,1,3.293-2.107,9.8,9.8,0,0,1,3.773-.766,9.327,9.327,0,0,1,3.708.767,8.831,8.831,0,0,1,3.133,2.269,11.665,11.665,0,0,1,2.174,3.706,14.151,14.151,0,0,1,.831,5.017,48.076,48.076,0,0,1-.447,6.262,43.806,43.806,0,0,1-1.406,6.646,8.926,8.926,0,0,0,4.27-.956,11.869,11.869,0,0,0,3.028-2.263,12.045,12.045,0,0,0,1.976-2.709Q172.393-204.07,172.9-204.963Zm-18.454,17.209q1.473,0,2.882-2.135a25.361,25.361,0,0,0,2.563-5.322,18.606,18.606,0,0,1-5.989-1.466,17.2,17.2,0,0,1-4.388-2.8,2.5,2.5,0,0,0-.128.8v.924a17.729,17.729,0,0,0,.32,3.155,17.24,17.24,0,0,0,.929,3.283,7.954,7.954,0,0,0,1.57,2.55A2.99,2.99,0,0,0,154.448-187.753Zm5.967-9.051a48.823,48.823,0,0,0,1.625-6.47,33.877,33.877,0,0,0,.606-5.96,12.353,12.353,0,0,0-.765-4.844,12.165,12.165,0,0,0-.956-1.785,6.481,6.481,0,0,0-1.466-1.593,7.009,7.009,0,0,0-2.135-1.115,9.178,9.178,0,0,0-2.9-.414,7.16,7.16,0,0,0-2.454.478,8.251,8.251,0,0,0-2.454,1.434,8.045,8.045,0,0,0-1.912,2.358,6.682,6.682,0,0,0-.765,3.251,15.632,15.632,0,0,0,.382,3.251,17.012,17.012,0,0,1,3.569-2.135,7.851,7.851,0,0,1,3-.733q1.912,0,1.912,1.466,0,.319-.606.956t-1.466,1.593q-.86.956-1.817,2.231a12.472,12.472,0,0,0-1.593,2.868,13.93,13.93,0,0,0,4.079,3.474A14.1,14.1,0,0,0,160.415-196.8Zm40.856-8.541a1.592,1.592,0,0,1,.414-.892.607.607,0,0,1,.606-.159,1.066,1.066,0,0,1,.542.382.823.823,0,0,1,.159.669q-.7,3.123-1.689,7.33t-2.263,8.7q-1.275,4.494-2.741,8.86a72.113,72.113,0,0,1-3.091,7.808,27.954,27.954,0,0,1-3.346,5.577q-1.721,2.135-3.442,2.135a9.309,9.309,0,0,1-5.864-1.976,16.815,16.815,0,0,1-4.4-5.386,37.609,37.609,0,0,1-3.091-7.9,78.062,78.062,0,0,1-1.976-9.5q-.733-5-1.052-10.294t-.319-10.2a86.814,86.814,0,0,1,.924-12.4,104.091,104.091,0,0,1,2.581-12.493,88.686,88.686,0,0,1,3.984-11.537,54.452,54.452,0,0,1,5.163-9.561,26.927,26.927,0,0,1,6.087-6.5,11.259,11.259,0,0,1,6.756-2.39,4.693,4.693,0,0,1,4.334,2.613,14.18,14.18,0,0,1,1.466,6.947,20.708,20.708,0,0,1-1.115,6.5,43.384,43.384,0,0,1-2.932,6.788,68.731,68.731,0,0,1-4.079,6.693q-2.263,3.283-4.589,6.183t-4.494,5.322q-2.167,2.422-3.7,4.016v1.848q0,4.27.351,9.5t.924,10.549q.574,5.322,1.339,10.357t1.625,8.955a46.581,46.581,0,0,0,1.753,6.278q.892,2.358,1.721,2.358,1.147,0,2.422-1.817a27.016,27.016,0,0,0,2.55-4.78q1.275-2.964,2.518-6.724t2.326-7.68q1.084-3.92,2.008-7.617T201.271-205.345Zm-5.864-51.947a6.257,6.257,0,0,0-3.824,1.4,15.061,15.061,0,0,0-3.442,3.856,33.906,33.906,0,0,0-2.932,5.768,61.9,61.9,0,0,0-2.358,7.107,80.474,80.474,0,0,0-1.689,7.872q-.669,4.079-.924,8.095,1.466-1.593,3.41-3.824t3.984-4.844q2.04-2.613,4.016-5.513a65.274,65.274,0,0,0,3.537-5.8,39.123,39.123,0,0,0,2.518-5.641,15.706,15.706,0,0,0,.956-5.163A2.56,2.56,0,0,0,198.4-255a4.816,4.816,0,0,0-.669-1.084,3.662,3.662,0,0,0-1.02-.86A2.564,2.564,0,0,0,195.408-257.292Zm7.84,34.036a2.293,2.293,0,0,1-1.817-.86,6.431,6.431,0,0,1-1.147-2.008,12.811,12.811,0,0,1-.606-2.358,13.209,13.209,0,0,1-.191-1.976q0-1.211,1.562-1.179a8.062,8.062,0,0,1,3.442.988,11.324,11.324,0,0,1,3.442,2.773,6.218,6.218,0,0,1,1.562,4.175q0,1.147-.574,1.37a2.436,2.436,0,0,1-1.466,0q-.892-.223-2.008-.574A7.307,7.307,0,0,0,203.247-223.255Zm18.612,18.165a.946.946,0,0,1,.414-.606.947.947,0,0,1,.574-.127.647.647,0,0,1,.446.223.693.693,0,0,1,.1.574q-.382,1.147-1.179,3.442t-1.976,5.035q-1.179,2.741-2.677,5.641a34.638,34.638,0,0,1-3.314,5.258,19.475,19.475,0,0,1-3.856,3.856,7.111,7.111,0,0,1-4.27,1.5,5.531,5.531,0,0,1-3.6-1.339,12.272,12.272,0,0,1-2.8-3.378,17.848,17.848,0,0,1-1.817-4.526,19.233,19.233,0,0,1-.637-4.78q0-2.295.255-5.067t.606-5.418q.351-2.645.606-4.812a30.658,30.658,0,0,0,.255-3.314,1.67,1.67,0,0,1,1.307-1.657,4.571,4.571,0,0,1,2.868.032,6.189,6.189,0,0,1,2.868,2.008,6.271,6.271,0,0,1,1.307,4.207,31.832,31.832,0,0,1-.287,3.824q-.287,2.295-.542,4.844t-.414,5.1a23.271,23.271,0,0,0,.127,4.621,8.5,8.5,0,0,0,1.084,3.346,2.633,2.633,0,0,0,2.39,1.275,3.741,3.741,0,0,0,2.486-1.179,15.805,15.805,0,0,0,2.486-3.059,44.314,44.314,0,0,0,2.358-4.175q1.147-2.295,2.1-4.494t1.657-4.016Q221.477-204.07,221.859-205.09Zm26.447.128a1.187,1.187,0,0,1,.606-.637.865.865,0,0,1,.605-.032.676.676,0,0,1,.382.382.766.766,0,0,1-.064.669q-.446.956-1.275,2.549a13.24,13.24,0,0,1-2.326,3.123,13.945,13.945,0,0,1-3.7,2.645,11.66,11.66,0,0,1-5.324,1.115,23.852,23.852,0,0,1-1.693,3.824,15.844,15.844,0,0,1-2.237,3.123,9.7,9.7,0,0,1-2.78,2.1,7.485,7.485,0,0,1-3.388.765,12.123,12.123,0,0,1-4.825-.894,10.373,10.373,0,0,1-3.515-2.427,10.216,10.216,0,0,1-2.173-3.576,12.727,12.727,0,0,1-.735-4.342,11.155,11.155,0,0,1,1.339-5.363,20.065,20.065,0,0,1,3.251-4.469,15.6,15.6,0,0,1-.956-5.108,8.639,8.639,0,0,1,.9-3.864,10.781,10.781,0,0,1,2.334-3.161,10.885,10.885,0,0,1,3.293-2.107,9.8,9.8,0,0,1,3.773-.766,9.327,9.327,0,0,1,3.708.767,8.831,8.831,0,0,1,3.133,2.269,11.665,11.665,0,0,1,2.174,3.706,14.151,14.151,0,0,1,.831,5.017,48.083,48.083,0,0,1-.447,6.262,43.812,43.812,0,0,1-1.406,6.646,8.926,8.926,0,0,0,4.271-.956,11.87,11.87,0,0,0,3.028-2.263,12.046,12.046,0,0,0,1.976-2.709Q247.8-204.07,248.306-204.963Zm-18.454,17.209q1.473,0,2.882-2.135a25.361,25.361,0,0,0,2.563-5.322,18.606,18.606,0,0,1-5.989-1.466,17.2,17.2,0,0,1-4.388-2.8,2.5,2.5,0,0,0-.127.8v.924a17.728,17.728,0,0,0,.32,3.155,17.241,17.241,0,0,0,.929,3.283,7.955,7.955,0,0,0,1.57,2.55A2.99,2.99,0,0,0,229.851-187.753Zm5.967-9.051a48.83,48.83,0,0,0,1.625-6.47,33.878,33.878,0,0,0,.606-5.96,12.352,12.352,0,0,0-.765-4.844,12.167,12.167,0,0,0-.956-1.785,6.481,6.481,0,0,0-1.466-1.593,7.009,7.009,0,0,0-2.135-1.115,9.178,9.178,0,0,0-2.9-.414,7.16,7.16,0,0,0-2.454.478,8.251,8.251,0,0,0-2.454,1.434,8.045,8.045,0,0,0-1.912,2.358,6.682,6.682,0,0,0-.765,3.251,15.632,15.632,0,0,0,.382,3.251,17.011,17.011,0,0,1,3.569-2.135,7.851,7.851,0,0,1,3-.733q1.912,0,1.912,1.466,0,.319-.606.956t-1.466,1.593q-.86.956-1.817,2.231a12.471,12.471,0,0,0-1.593,2.868,13.929,13.929,0,0,0,4.079,3.474A14.1,14.1,0,0,0,235.818-196.8Z" transform="translate(18.03 264.905)"/>
  </g>
</svg>
